<?xml version="1.0" encoding="UTF-8" standalone="no" ?>
<!DOCTYPE svg PUBLIC "-//W3C//DTD SVG 1.1//EN" "http://www.w3.org/Graphics/SVG/1.1/DTD/svg11.dtd">
<svg xmlns="http://www.w3.org/2000/svg" xmlns:xlink="http://www.w3.org/1999/xlink" version="1.1" width="640" height="640" viewBox="0 0 640 640" xml:space="preserve">
<desc>Created with Fabric.js 4.6.0</desc>
<defs>
</defs>
<g transform="matrix(26.57 0 0 26.57 319.82 319.82)" id="E2R1V4SmF3LSB0JPiPFny"  >
<path style="stroke: none; stroke-width: 1; stroke-dasharray: none; stroke-linecap: butt; stroke-dashoffset: 0; stroke-linejoin: miter; stroke-miterlimit: 4; fill: rgb(206,212,218); fill-rule: nonzero; opacity: 1;" vector-effect="non-scaling-stroke"  transform=" translate(-12, -12)" d="M 12 0 C 5.352 0 0 5.352 0 12 C 0 18.648 5.352 24 12 24 C 18.648 24 24 18.648 24 12 C 24 5.352 18.648 0 12 0 z M 14.8 4.333 C 14.930000000000001 4.329000000000001 15.048 4.469 14.971 4.611000000000001 L 11.927 10.191 C 11.895680277085734 10.248875116193881 11.897086036608805 10.318952633938153 11.930701586290512 10.375525144378102 C 11.964317135972221 10.432097654818051 12.025194015212524 10.466837260846285 12.091 10.467 L 17.351 10.467 C 17.521 10.467 17.602999999999998 10.674000000000001 17.479 10.790000000000001 L 8.258999999999999 19.395000000000003 C 8.094 19.549000000000003 7.848999999999998 19.332000000000004 7.980999999999998 19.149000000000004 L 12.344999999999999 13.128000000000004 C 12.385771887887943 13.071165368158173 12.39141670621235 12.996328241652915 12.359631474705731 12.934020767971067 C 12.327846243199113 12.871713294289219 12.263945672523814 12.83235371419935 12.193999999999999 12.832000000000004 L 6.627 12.832000000000004 C 6.551249006921534 12.831816552836132 6.4830917708624884 12.785951329957264 6.45439281274421 12.715847004782843 C 6.425693854625931 12.645742679608421 6.442123245131804 12.56524980647954 6.4959999999999996 12.512000000000004 L 14.675999999999998 4.389000000000005 C 14.708784881426414 4.354768430374368 14.75363086408542 4.334677430143134 14.800999999999998 4.333000000000005 z" stroke-linecap="round" />
</g>
</svg>