<?xml version="1.0" encoding="UTF-8" standalone="no" ?>
<!DOCTYPE svg PUBLIC "-//W3C//DTD SVG 1.1//EN" "http://www.w3.org/Graphics/SVG/1.1/DTD/svg11.dtd">
<svg xmlns="http://www.w3.org/2000/svg" xmlns:xlink="http://www.w3.org/1999/xlink" version="1.1" width="640" height="640" viewBox="0 0 640 640" xml:space="preserve">
<desc>Created with Fabric.js 4.6.0</desc>
<defs>
</defs>
<g transform="matrix(26.58 0 0 26.58 319.81 320)" id="XcEONiDyPk8icU0t1ce6J"  >
<path style="stroke: none; stroke-width: 1; stroke-dasharray: none; stroke-linecap: butt; stroke-dashoffset: 0; stroke-linejoin: miter; stroke-miterlimit: 4; fill: rgb(206,212,218); fill-rule: nonzero; opacity: 1;" vector-effect="non-scaling-stroke"  transform=" translate(-12, -12)" d="M 12 0.297 C 5.37 0.297 0 5.67 0 12.297 C 0 17.6 3.438 22.097 8.205 23.682000000000002 C 8.805 23.795 9.025 23.424000000000003 9.025 23.105000000000004 C 9.025 22.820000000000004 9.015 22.065000000000005 9.01 21.065000000000005 C 5.672 21.789000000000005 4.968 19.455000000000005 4.968 19.455000000000005 C 4.422 18.07 3.633 17.7 3.633 17.7 C 2.5460000000000003 16.956 3.717 16.971 3.717 16.971 C 4.922000000000001 17.055 5.555 18.207 5.555 18.207 C 6.625 20.042 8.364 19.512 9.05 19.205000000000002 C 9.158000000000001 18.429000000000002 9.467 17.900000000000002 9.81 17.6 C 7.1450000000000005 17.3 4.344 16.268 4.344 11.670000000000002 C 4.344 10.360000000000001 4.809 9.290000000000003 5.579000000000001 8.450000000000001 C 5.444000000000001 8.147 5.039000000000001 6.927000000000001 5.684000000000001 5.274000000000001 C 5.684000000000001 5.274000000000001 6.689000000000001 4.952000000000001 8.984000000000002 6.504000000000001 C 9.944000000000003 6.237000000000001 10.964000000000002 6.105000000000001 11.984000000000002 6.099000000000001 C 13.004000000000001 6.105000000000001 14.024000000000001 6.237000000000001 14.984000000000002 6.504000000000001 C 17.264000000000003 4.952000000000002 18.269000000000002 5.274000000000001 18.269000000000002 5.274000000000001 C 18.914 6.927000000000001 18.509 8.147000000000002 18.389000000000003 8.450000000000001 C 19.154000000000003 9.290000000000001 19.619000000000003 10.360000000000001 19.619000000000003 11.670000000000002 C 19.619000000000003 16.28 16.814000000000004 17.295 14.144000000000004 17.590000000000003 C 14.564000000000004 17.950000000000003 14.954000000000004 18.686000000000003 14.954000000000004 19.810000000000002 C 14.954000000000004 21.416000000000004 14.939000000000004 22.706000000000003 14.939000000000004 23.096000000000004 C 14.939000000000004 23.411000000000005 15.149000000000004 23.786000000000005 15.764000000000003 23.666000000000004 C 20.565 22.092 24 17.592 24 12.297 C 24 5.670000000000001 18.627 0.2970000000000006 12 0.2970000000000006" stroke-linecap="round" />
</g>
</svg>