<?xml version="1.0" encoding="UTF-8" standalone="no" ?>
<!DOCTYPE svg PUBLIC "-//W3C//DTD SVG 1.1//EN" "http://www.w3.org/Graphics/SVG/1.1/DTD/svg11.dtd">
<svg xmlns="http://www.w3.org/2000/svg" xmlns:xlink="http://www.w3.org/1999/xlink" version="1.1" width="640" height="640" viewBox="0 0 640 640" xml:space="preserve">
<desc>Created with Fabric.js 4.6.0</desc>
<defs>
</defs>
<g transform="matrix(26.62 0 0 26.62 320.26 320.26)" id="dNACXVJT8fyJTSzjrJZrb"  >
<path style="stroke: none; stroke-width: 1; stroke-dasharray: none; stroke-linecap: butt; stroke-dashoffset: 0; stroke-linejoin: miter; stroke-miterlimit: 4; fill: rgb(206,212,218); fill-rule: nonzero; opacity: 1;" vector-effect="non-scaling-stroke"  transform=" translate(-12, -12)" d="M 0 0 L 24 0 L 24 24 L 0 24 L 0 0 z M 22.034 18.276 C 21.858999999999998 17.181 21.145999999999997 16.261 19.031 15.402999999999999 C 18.294999999999998 15.057999999999998 17.477 14.817999999999998 17.233999999999998 14.262999999999998 C 17.142999999999997 13.932999999999998 17.128999999999998 13.752999999999998 17.188 13.557999999999998 C 17.337999999999997 12.911999999999997 18.102999999999998 12.717999999999998 18.703 12.897999999999998 C 19.093 13.017999999999997 19.453 13.317999999999998 19.679 13.797999999999998 C 20.712999999999997 13.121999999999998 20.712999999999997 13.121999999999998 21.433999999999997 12.672999999999998 C 21.163999999999998 12.252999999999998 21.029999999999998 12.072 20.848 11.892999999999999 C 20.218 11.187999999999999 19.378999999999998 10.828 18.014 10.858999999999998 L 17.309 10.947999999999999 C 16.633000000000003 11.112999999999998 15.989 11.472999999999999 15.599 11.953 C 14.459 13.244 14.788 15.494 16.168 16.424 C 17.532999999999998 17.444 19.529 17.668 19.784 18.628999999999998 C 20.023999999999997 19.799 18.913999999999998 20.174 17.817999999999998 20.038999999999998 C 17.006999999999998 19.858999999999998 16.557999999999996 19.453 16.063 18.703 L 14.232999999999999 19.753999999999998 C 14.443 20.233999999999998 14.682999999999998 20.442999999999998 15.043 20.863 C 16.782999999999998 22.619 21.133 22.529 21.914 19.858999999999998 C 21.943 19.769 22.154 19.154 21.988000000000003 18.209 L 22.034000000000002 18.276 z M 13.050999999999998 11.030999999999999 L 10.802999999999997 11.030999999999999 C 10.802999999999997 12.969 10.793999999999997 14.895 10.793999999999997 16.836 C 10.793999999999997 18.067999999999998 10.856999999999998 19.198999999999998 10.655999999999997 19.546999999999997 C 10.325999999999997 20.235999999999997 9.475999999999997 20.147999999999996 9.089999999999996 20.026999999999997 C 8.693999999999996 19.830999999999996 8.492999999999997 19.560999999999996 8.259999999999996 19.171999999999997 C 8.196999999999996 19.066999999999997 8.149999999999997 18.975999999999996 8.132999999999996 18.975999999999996 L 6.307999999999995 20.100999999999996 C 6.612999999999995 20.730999999999995 7.057999999999995 21.272999999999996 7.631999999999995 21.617999999999995 C 8.486999999999995 22.127999999999997 9.635999999999996 22.292999999999996 10.838999999999995 22.022999999999996 C 11.621999999999995 21.796999999999997 12.296999999999995 21.331999999999997 12.649999999999995 20.611999999999995 C 13.159999999999995 19.681999999999995 13.051999999999994 18.541999999999994 13.046999999999995 17.265999999999995 C 13.058999999999996 15.211999999999994 13.046999999999995 13.156999999999995 13.046999999999995 11.086999999999994 L 13.050999999999995 11.030999999999995 z" stroke-linecap="round" />
</g>
</svg>