<?xml version="1.0" encoding="UTF-8" standalone="no" ?>
<!DOCTYPE svg PUBLIC "-//W3C//DTD SVG 1.1//EN" "http://www.w3.org/Graphics/SVG/1.1/DTD/svg11.dtd">
<svg xmlns="http://www.w3.org/2000/svg" xmlns:xlink="http://www.w3.org/1999/xlink" version="1.1" width="640" height="640" viewBox="0 0 640 640" xml:space="preserve">
<desc>Created with Fabric.js 4.6.0</desc>
<defs>
</defs>
<g transform="matrix(26.52 0 0 26.52 319.08 319.08)" id="mn8jOLgN1xACySCLLpQIi"  >
<path style="stroke: none; stroke-width: 1; stroke-dasharray: none; stroke-linecap: butt; stroke-dashoffset: 0; stroke-linejoin: miter; stroke-miterlimit: 4; fill: rgb(206,212,218); fill-rule: nonzero; opacity: 1;" vector-effect="non-scaling-stroke"  transform=" translate(-12, -12)" d="M 11.5725 0 C 11.3962 0 11.2627 0.0013 11.2141 0.0067 C 11.1625 0.012 10.9982 0.027700000000000002 10.8505 0.0395 C 7.441700000000001 0.3468 4.2488 2.1858 2.2264999999999997 5.012300000000001 C 1.1004 6.584 0.3802 8.3666 0.1082 10.255 C 0.01200000000000001 10.914000000000001 0.00020000000000000573 11.1087 0.00020000000000000573 12.002400000000002 C 0.00020000000000000573 12.896100000000002 0.012200000000000006 13.090800000000002 0.1082 13.750000000000002 C 0.7602 18.256 3.9673000000000003 22.041900000000002 8.3169 23.4445 C 9.0958 23.695600000000002 9.9169 23.8668 10.8506 23.970000000000002 C 11.2142 24.01 12.786 24.01 13.1496 23.970000000000002 C 14.761299999999999 23.791700000000002 16.1268 23.393 17.4733 22.705700000000004 C 17.679799999999997 22.600100000000005 17.7197 22.572000000000003 17.691599999999998 22.548400000000004 C 17.6728 22.534500000000005 16.792899999999996 21.354600000000005 15.737299999999998 19.928400000000003 L 13.818299999999997 17.336400000000005 L 11.413599999999997 13.778100000000006 C 10.090499999999997 11.821700000000005 9.001899999999997 10.222100000000005 8.992499999999996 10.222100000000005 C 8.983099999999997 10.219500000000005 8.973799999999995 11.800800000000004 8.968999999999996 13.731100000000005 C 8.962299999999995 17.111300000000004 8.959699999999996 17.247300000000006 8.917399999999995 17.327100000000005 C 8.856399999999995 17.442100000000003 8.809399999999995 17.488900000000005 8.710999999999995 17.540500000000005 C 8.635999999999996 17.577900000000007 8.570199999999994 17.585000000000004 8.215999999999996 17.585000000000004 L 7.809999999999996 17.585000000000004 L 7.702199999999996 17.517000000000003 C 7.635348248353105 17.47511986048936 7.581038624449984 17.415973501633037 7.544999999999996 17.345800000000004 L 7.495699999999997 17.240200000000005 L 7.500999999999997 12.537200000000006 L 7.507699999999997 7.831800000000006 L 7.580299999999998 7.740300000000006 C 7.617899999999998 7.691000000000006 7.6976999999999975 7.627800000000006 7.753899999999998 7.597300000000006 C 7.850099999999998 7.550300000000006 7.887699999999998 7.545600000000006 8.293499999999998 7.545600000000006 C 8.772199999999998 7.545600000000006 8.851899999999999 7.564300000000006 8.976199999999999 7.700300000000006 C 9.011499999999998 7.738000000000006 10.313499999999998 9.699000000000005 11.871199999999998 12.061100000000007 C 13.448378943963371 14.451930000309563 15.026512403086905 16.8421301908258 16.605600000003005 19.231700000002203 L 18.5058 22.109900000000007 L 18.6018 22.046600000000005 C 19.4536 21.493000000000006 20.354300000000002 20.704800000000006 21.067500000000003 19.883900000000004 C 22.585400000000003 18.141000000000005 23.563800000000004 16.015900000000006 23.892200000000003 13.749900000000004 C 23.988300000000002 13.090800000000003 24.000000000000004 12.895900000000005 24.000000000000004 12.002400000000003 C 24.000000000000004 11.108700000000002 23.988000000000003 10.914000000000003 23.892200000000003 10.254800000000003 C 23.240000000000002 5.748800000000003 20.033 1.962900000000003 15.683500000000002 0.5603000000000034 C 14.916300000000001 0.3116000000000033 14.099900000000002 0.14030000000000337 13.185000000000002 0.03710000000000335 C 13.016000000000002 0.01950000000000335 12.101500000000001 0.0005000000000033519 11.572700000000003 0.00010000000000335435 z M 15.641 7.217 C 15.9883 7.217 16.0492 7.2223 16.1267 7.263999999999999 C 16.2394 7.320199999999999 16.3307 7.4281999999999995 16.363699999999998 7.540699999999999 C 16.382299999999997 7.601699999999999 16.387099999999997 8.905999999999999 16.382299999999997 11.845099999999999 L 16.3756 16.0626 L 15.631999999999998 14.9226 L 14.885899999999998 13.782599999999999 L 14.885899999999998 10.7166 C 14.885899999999998 8.7346 14.895199999999997 7.6203 14.909299999999998 7.5664 C 14.946799999999998 7.435099999999999 15.028899999999998 7.331799999999999 15.141599999999999 7.2709 C 15.237699999999998 7.2215 15.272899999999998 7.2169 15.6413 7.2169 z" stroke-linecap="round" />
</g>
</svg>