<?xml version="1.0" encoding="UTF-8" standalone="no" ?>
<!DOCTYPE svg PUBLIC "-//W3C//DTD SVG 1.1//EN" "http://www.w3.org/Graphics/SVG/1.1/DTD/svg11.dtd">
<svg xmlns="http://www.w3.org/2000/svg" xmlns:xlink="http://www.w3.org/1999/xlink" version="1.1" width="640" height="640" viewBox="0 0 640 640" xml:space="preserve">
<desc>Created with Fabric.js 4.6.0</desc>
<defs>
</defs>
<g transform="matrix(26.58 0 0 26.58 320.24 328.95)" id="iMDPPtyExzAW03sB1tVlZ"  >
<path style="stroke: none; stroke-width: 1; stroke-dasharray: none; stroke-linecap: butt; stroke-dashoffset: 0; stroke-linejoin: miter; stroke-miterlimit: 4; fill: rgb(206,212,218); fill-rule: nonzero; opacity: 1;" vector-effect="non-scaling-stroke"  transform=" translate(-12, -12)" d="M 14.23 12.004 C 14.230000123459341 13.238518281718797 13.229518158259463 14.239447889856125 11.995 14.24 C 10.760091299378347 14.24 9.759 13.238908700621653 9.759 12.004 C 9.75899987654066 10.769481718281202 10.759481841740538 9.768552110143876 11.994 9.767999999999999 C 12.58702407128122 9.767999999999999 13.155759420523314 10.003577895057074 13.57509076273312 10.422909237266879 C 13.994422104942926 10.842240579476684 14.23 11.410975928718777 14.23 12.003999999999998 z M 16.878 1.314 C 15.532 1.314 13.771 2.274 11.99 3.936 C 10.21 2.283 8.448 1.334 7.103000000000001 1.334 C 6.6930000000000005 1.334 6.32 1.427 5.997000000000001 1.612 C 4.622000000000001 2.4050000000000002 4.314000000000001 4.8759999999999994 5.024000000000001 7.977 C 1.98 8.917 0 10.42 0 12.004 C 0 13.594 1.99 15.100999999999999 5.043 16.034 C 4.339 19.147 4.6530000000000005 21.622 6.031000000000001 22.413999999999998 C 6.351000000000001 22.601 6.721 22.688999999999997 7.133000000000001 22.688999999999997 C 8.478000000000002 22.688999999999997 10.240000000000002 21.728999999999996 12.021 20.064999999999998 C 13.801 21.718999999999998 15.563 22.668 16.908 22.668 C 17.318 22.668 17.691000000000003 22.578 18.014000000000003 22.393 C 19.388 21.601 19.697000000000003 19.130000000000003 18.987000000000002 16.028 C 22.02 15.096 24 13.59 24 12.004 C 24 10.414 22.01 8.907 18.957 7.9719999999999995 C 19.661 4.862 19.347 2.385 17.969 1.5919999999999996 C 17.651 1.4079999999999997 17.281000000000002 1.3149999999999995 16.877000000000002 1.3139999999999996 z M 16.873 2.404 L 16.873 2.4099999999999997 C 17.098000000000003 2.4099999999999997 17.279 2.4539999999999997 17.431 2.537 C 18.097 2.919 18.386 4.372 18.161 6.241 C 18.107000000000003 6.701 18.019000000000002 7.186 17.911 7.680999999999999 C 16.951 7.444999999999999 15.905000000000001 7.263999999999999 14.804000000000002 7.146999999999999 C 14.144000000000002 6.241999999999999 13.459000000000001 5.419999999999999 12.769000000000002 4.699999999999999 C 14.361000000000002 3.2199999999999993 15.856000000000002 2.4079999999999995 16.874000000000002 2.4049999999999994 z M 7.1030000000000015 2.424 C 8.115000000000002 2.424 9.617 3.232 11.213000000000001 4.704 C 10.527000000000001 5.4239999999999995 9.843 6.241 9.193000000000001 7.146 C 8.086000000000002 7.263 7.0390000000000015 7.444 6.080000000000002 7.684 C 5.968000000000002 7.194 5.885000000000002 6.720000000000001 5.826000000000002 6.264 C 5.596000000000002 4.396 5.880000000000003 2.9440000000000004 6.540000000000003 2.5570000000000004 C 6.730000000000003 2.4670000000000005 6.940000000000003 2.4300000000000006 7.103000000000002 2.4250000000000003 z M 11.985000000000001 5.474 C 12.440000000000001 5.942 12.895000000000001 6.466 13.345 7.038 C 12.905000000000001 7.018000000000001 12.455 7.0040000000000004 12 7.0040000000000004 C 11.54 7.0040000000000004 11.085 7.014 10.64 7.038 C 11.08 6.466 11.535 5.942 11.985000000000001 5.473000000000001 z M 12 8.1 C 12.74 8.1 13.477 8.134 14.202 8.193 C 14.608 8.775 15.004 9.395999999999999 15.385 10.052999999999999 C 15.757 10.693 16.095 11.343 16.403 11.998999999999999 C 16.095 12.653999999999998 15.756999999999998 13.309 15.389999999999999 13.948999999999998 C 15.009999999999998 14.608999999999998 14.616999999999999 15.236999999999998 14.209999999999999 15.818999999999999 C 13.482 15.882 12.744 15.917 12 15.917 C 11.26 15.917 10.523 15.882 9.798 15.824 C 9.392 15.241999999999999 8.996 14.62 8.615 13.964 C 8.243 13.324 7.905 12.674 7.597 12.018 C 7.9 11.361 8.243 10.705 8.61 10.064 C 8.99 9.404 9.383 8.778 9.79 8.196 C 10.517999999999999 8.132 11.255999999999998 8.097999999999999 12 8.097999999999999 z M 8.365 8.354 C 8.125 8.731 7.885 9.116999999999999 7.6610000000000005 9.514 C 7.436000000000001 9.904 7.226000000000001 10.296 7.026000000000001 10.687999999999999 C 6.761000000000001 10.031999999999998 6.5360000000000005 9.377999999999998 6.3500000000000005 8.741 C 6.99 8.591 7.665000000000001 8.458 8.365 8.355 z M 15.625 8.354 C 16.32 8.456999999999999 16.99 8.584 17.631 8.741 C 17.451 9.373 17.226 10.023 16.971 10.674 C 16.771 10.283999999999999 16.561 9.891 16.331 9.5 C 16.105999999999998 9.108 15.866 8.725999999999999 15.626 8.354 z M 18.688 9.029 C 19.171999999999997 9.179 19.631999999999998 9.346 20.063 9.527 C 21.794999999999998 10.267 22.915 11.235 22.915 12.003 C 22.91 12.771 21.79 13.743 20.058 14.478 C 19.637999999999998 14.658 19.178 14.82 18.703 14.971 C 18.423 14.013 18.057 13.015 17.602999999999998 11.991 C 18.052999999999997 10.974 18.412999999999997 9.981 18.688 9.027 z M 5.292999999999999 9.033 C 5.571 9.992999999999999 5.937999999999999 10.99 6.392999999999999 12.013 C 5.942999999999999 13.03 5.580999999999999 14.023 5.306999999999999 14.977 C 4.822999999999999 14.827 4.362999999999999 14.659 3.9369999999999985 14.477 C 2.2049999999999983 13.74 1.0849999999999986 12.771 1.0849999999999986 12.003 C 1.0849999999999986 11.235 2.2049999999999987 10.261 3.9369999999999985 9.527000000000001 C 4.356999999999998 9.347000000000001 4.816999999999998 9.185 5.292999999999998 9.033000000000001 z M 16.971 13.312999999999999 C 17.236 13.969999999999999 17.461 14.624999999999998 17.647 15.261 C 17.006999999999998 15.418 16.331 15.550999999999998 15.630999999999998 15.651 C 15.870999999999999 15.276 16.110999999999997 14.889 16.336 14.493 C 16.561 14.103 16.770999999999997 13.705 16.971999999999998 13.313 z M 7.026 13.332999999999998 C 7.226 13.724999999999998 7.436 14.115999999999998 7.6659999999999995 14.508 C 7.896 14.898 8.131 15.28 8.370999999999999 15.651 C 7.675999999999998 15.549 7.0059999999999985 15.421 6.364999999999998 15.265 C 6.544999999999998 14.635 6.770999999999998 13.983 7.024999999999999 13.332 z M 17.92 16.32 C 18.032 16.813 18.12 17.288 18.174000000000003 17.743000000000002 C 18.404000000000003 19.611 18.120000000000005 21.063000000000002 17.460000000000004 21.451 C 17.313000000000006 21.541 17.122000000000003 21.579 16.897000000000006 21.579 C 15.885000000000005 21.579 14.383000000000006 20.772000000000002 12.787000000000006 19.299 C 13.473000000000006 18.579 14.157000000000007 17.762999999999998 14.807000000000006 16.858999999999998 C 15.914000000000005 16.741 16.961000000000006 16.558999999999997 17.920000000000005 16.319 z M 6.090000000000002 16.330000000000002 C 7.050000000000002 16.564000000000004 8.096000000000002 16.745 9.197000000000003 16.862000000000002 C 9.857000000000003 17.767000000000003 10.542000000000003 18.589000000000002 11.232000000000003 19.308000000000003 C 9.637000000000002 20.791000000000004 8.140000000000002 21.603 7.1220000000000026 21.603 C 6.902000000000003 21.598000000000003 6.716000000000003 21.553 6.569000000000003 21.471 C 5.903000000000002 21.091 5.6140000000000025 19.637 5.839000000000002 17.768 C 5.8930000000000025 17.308 5.9810000000000025 16.824 6.089000000000002 16.330000000000002 z M 10.650000000000002 16.970000000000002 C 11.090000000000002 16.990000000000002 11.540000000000003 17.004 11.995000000000003 17.004 C 12.455000000000004 17.004 12.910000000000004 16.994 13.355000000000002 16.970000000000002 C 12.915000000000003 17.542 12.460000000000003 18.065 12.010000000000002 18.535000000000004 C 11.555000000000001 18.065000000000005 11.100000000000001 17.542000000000005 10.650000000000002 16.970000000000002 z" stroke-linecap="round" />
</g>
</svg>