<?xml version="1.0" encoding="UTF-8" standalone="no" ?>
<!DOCTYPE svg PUBLIC "-//W3C//DTD SVG 1.1//EN" "http://www.w3.org/Graphics/SVG/1.1/DTD/svg11.dtd">
<svg xmlns="http://www.w3.org/2000/svg" xmlns:xlink="http://www.w3.org/1999/xlink" version="1.1" width="640" height="640" viewBox="0 0 640 640" xml:space="preserve">
<desc>Created with Fabric.js 4.6.0</desc>
<defs>
</defs>
<g transform="matrix(26.59 0 0 26.59 319.88 325.22)" id="LmfczYpCLNu2wfb-jZ9gP"  >
<path style="stroke: none; stroke-width: 1; stroke-dasharray: none; stroke-linecap: butt; stroke-dashoffset: 0; stroke-linejoin: miter; stroke-miterlimit: 4; fill: rgb(206,212,218); fill-rule: nonzero; opacity: 1;" vector-effect="non-scaling-stroke"  transform=" translate(-12, -12)" d="M 16.634 16.504 C 17.504 16.429000000000002 18.177 15.664000000000001 18.134 14.750000000000002 C 18.087 13.836000000000002 17.338 13.102000000000002 16.425 13.102000000000002 L 16.364 13.102000000000002 C 15.420527970683057 13.13564650351616 14.682826995199038 13.92751120353511 14.716000000000001 14.871000000000002 C 14.746 15.350000000000001 14.942000000000002 15.740000000000002 15.21 16.024 C 14.162 18.062 12.589 19.560000000000002 10.205000000000002 20.819000000000003 C 8.602000000000002 21.657000000000004 6.9090000000000025 21.973000000000003 5.261000000000002 21.749000000000002 C 3.883000000000002 21.554000000000002 2.805000000000002 20.939000000000004 2.145000000000002 19.950000000000003 C 1.1570000000000018 18.451000000000004 1.0670000000000017 16.834000000000003 1.890000000000002 15.216000000000003 C 2.490000000000002 14.046000000000003 3.389000000000002 13.193000000000003 3.989000000000002 12.773000000000003 C 3.807869839751903 12.270755115175211 3.6674172599110797 11.754759089712383 3.5690000000000004 11.230000000000004 C -0.868 14.408 -0.416 18.752 0.932 20.805 C 1.936 22.303 3.989 23.261 6.236000000000001 23.261 C 6.836 23.261 7.466000000000001 23.217 8.079 23.067 C 11.976 22.318 14.927 19.981 16.62 16.535 z M 21.982 12.758000000000001 C 19.662 10.030000000000001 16.244 8.532 12.347999999999999 8.532 L 11.838 8.532 C 11.584999999999999 7.978 11.001 7.633 10.34 7.633 L 10.295 7.633 C 9.352 7.633 8.617 8.443 8.648 9.386 C 8.677999999999999 10.283999999999999 9.442 11.033999999999999 10.356 11.033999999999999 L 10.43 11.033999999999999 C 11.092102392905568 11.008423268073225 11.678177744682143 10.598287815095487 11.929 9.985 L 12.484 9.985 C 14.793 9.985 16.979 10.658999999999999 18.972 11.977 C 20.499000000000002 12.982 21.594 14.3 22.209000000000003 15.874 C 22.747000000000003 17.162 22.718000000000004 18.421 22.164 19.471 C 21.309 21.118 19.87 21.988 17.968000000000004 21.988 C 16.769000000000002 21.988 15.601000000000003 21.613 15.001000000000003 21.344 C 14.641000000000004 21.642 14.041000000000004 22.137 13.607000000000003 22.437 C 14.925000000000002 23.035 16.259000000000004 23.380000000000003 17.547000000000004 23.380000000000003 C 20.469000000000005 23.380000000000003 22.641000000000005 21.733000000000004 23.466000000000005 20.144000000000002 C 24.364000000000004 18.346000000000004 24.290000000000006 15.320000000000002 21.996000000000006 12.728000000000002 z M 6.49 17.042 C 6.5200000000000005 17.941000000000003 7.283 18.69 8.198 18.69 L 8.258000000000001 18.69 C 8.71291600862341 18.679734083119918 9.144419656575216 18.486240025787296 9.454681462589507 18.153386340694293 C 9.7649432686038 17.82053265560129 9.92768130823173 17.376514999559532 9.906 16.922 C 9.906 16.022000000000002 9.127 15.275 8.213000000000001 15.275 L 8.153 15.275 C 8.093 15.275 8.003 15.275 7.9270000000000005 15.304 C 6.684 13.206 6.159000000000001 10.957 6.355 8.532 C 6.4750000000000005 6.704 7.075 5.115 8.152000000000001 3.7969999999999997 C 9.052000000000001 2.6729999999999996 10.745000000000001 2.117 11.899000000000001 2.0889999999999995 C 15.135000000000002 2.0279999999999996 16.484 6.06 16.588 7.662999999999999 L 18.086000000000002 8.113 C 17.741 3.197 14.686 0.62 11.764 0.62 C 9.02 0.62 6.49 2.613 5.47 5.535 C 4.077 9.43 4.991 13.177 6.7 16.174 C 6.55 16.369 6.46 16.713 6.49 17.041999999999998 z" stroke-linecap="round" />
</g>
</svg>