<?xml version="1.0" encoding="UTF-8" standalone="no" ?>
<!DOCTYPE svg PUBLIC "-//W3C//DTD SVG 1.1//EN" "http://www.w3.org/Graphics/SVG/1.1/DTD/svg11.dtd">
<svg xmlns="http://www.w3.org/2000/svg" xmlns:xlink="http://www.w3.org/1999/xlink" version="1.1" width="640" height="640" viewBox="0 0 640 640" xml:space="preserve">
<desc>Created with Fabric.js 4.6.0</desc>
<defs>
</defs>
<g transform="matrix(26.55 0 0 26.55 320.53 319.47)" id="nS0OtNwAAb5vLOQ9NoOEl"  >
<path style="stroke: none; stroke-width: 1; stroke-dasharray: none; stroke-linecap: butt; stroke-dashoffset: 0; stroke-linejoin: miter; stroke-miterlimit: 4; fill: rgb(206,212,218); fill-rule: nonzero; opacity: 1;" vector-effect="non-scaling-stroke"  transform=" translate(-12, -12)" d="M 12 0 C 18.627 0 24 5.373 24 12 C 24 18.627 18.627 24 12 24 C 5.373000000000001 24 0 18.627 0 12 C 0 5.373000000000001 5.373 0 12 0 z M 9.615 15.998 C 9.790000000000001 16.643 9.771 17.246 9.591000000000001 17.79 L 9.526000000000002 17.97 C 9.502000000000002 18.031 9.474000000000002 18.09 9.448000000000002 18.145999999999997 C 9.308000000000002 18.435999999999996 9.122000000000002 18.705999999999996 8.893000000000002 18.955999999999996 C 8.195000000000002 19.714999999999996 7.221000000000003 20.002999999999997 6.803000000000003 19.760999999999996 C 6.353000000000002 19.498999999999995 6.577000000000003 18.425999999999995 7.387000000000002 17.570999999999994 C 8.258000000000003 16.652999999999995 9.507000000000001 16.061999999999994 9.507000000000001 16.061999999999994 L 9.507000000000001 16.058999999999994 L 9.615000000000002 15.997999999999994 z M 19.526 5.136999999999999 C 18.983999999999998 3.0039999999999987 15.449 2.3029999999999986 12.104 3.4919999999999987 C 10.114999999999998 4.198999999999999 7.959999999999999 5.309999999999999 6.411 6.758999999999999 C 4.568 8.48 4.275 9.98 4.396 10.607 C 4.8229999999999995 12.818 7.853 14.264 9.099 15.337 L 9.099 15.343 C 8.732 15.523 6.043 16.872 5.413 18.268 C 4.738 19.738 5.518000000000001 20.789 6.0280000000000005 20.923000000000002 C 7.603000000000001 21.359 9.223 20.563000000000002 10.093 19.274 C 10.933 18.013 10.859 16.393 10.497 15.598 C 10.993 15.463000000000001 11.577 15.403 12.327 15.494000000000002 C 14.428 15.734000000000002 14.847999999999999 17.054000000000002 14.757 17.594 C 14.667 18.133000000000003 14.234 18.448 14.083 18.538 C 13.933 18.629 13.888 18.658 13.902000000000001 18.719 C 13.917000000000002 18.809 13.993 18.809 14.112000000000002 18.794 C 14.277000000000001 18.764 15.208000000000002 18.344 15.253000000000002 17.323 C 15.298000000000002 16.033 14.067000000000002 14.594000000000001 11.878000000000002 14.623000000000001 C 10.978000000000002 14.639000000000001 10.407000000000002 14.714 10.003000000000002 14.879000000000001 C 9.973000000000003 14.834000000000001 9.942000000000002 14.804000000000002 9.898000000000001 14.774000000000001 C 8.548000000000002 13.319 6.043000000000001 12.299000000000001 6.1480000000000015 10.364 C 6.178000000000002 9.659 6.433000000000002 7.800000000000001 10.948 5.550000000000001 C 14.653 3.7040000000000006 17.609 4.215000000000001 18.119 5.340000000000001 C 18.852 6.944000000000001 16.543 9.93 12.687999999999999 10.364 C 11.217999999999998 10.529 10.453 9.96 10.256999999999998 9.749 C 10.047999999999998 9.524000000000001 10.017999999999997 9.509 9.942999999999998 9.555 C 9.822999999999999 9.615 9.897999999999998 9.81 9.942999999999998 9.93 C 10.062999999999997 10.23 10.527999999999999 10.754999999999999 11.338999999999999 11.025 C 12.043 11.25 13.768999999999998 11.384 15.838999999999999 10.575000000000001 C 18.162999999999997 9.676000000000002 19.977999999999998 7.170000000000002 19.453 5.070000000000001 L 19.526 5.137000000000001 z" stroke-linecap="round" />
</g>
</svg>