<?xml version="1.0" encoding="UTF-8" standalone="no" ?>
<!DOCTYPE svg PUBLIC "-//W3C//DTD SVG 1.1//EN" "http://www.w3.org/Graphics/SVG/1.1/DTD/svg11.dtd">
<svg xmlns="http://www.w3.org/2000/svg" xmlns:xlink="http://www.w3.org/1999/xlink" version="1.1" width="640" height="640" viewBox="0 0 640 640" xml:space="preserve">
<desc>Created with Fabric.js 4.6.0</desc>
<defs>
</defs>
<g transform="matrix(26.48 0 0 26.48 321.19 321.19)" id="QujdJjCT-hqO8ZtVuF-v5"  >
<path style="stroke: none; stroke-width: 1; stroke-dasharray: none; stroke-linecap: butt; stroke-dashoffset: 0; stroke-linejoin: miter; stroke-miterlimit: 4; fill: rgb(206,212,218); fill-rule: nonzero; opacity: 1;" vector-effect="non-scaling-stroke"  transform=" translate(-12, -12)" d="M 1.125 0 C 0.502 0 0 0.502 0 1.125 L 0 22.875 C 0 23.498 0.502 24 1.125 24 L 22.875 24 C 23.498 24 24 23.498 24 22.875 L 24 1.125 C 24 0.502 23.498 0 22.875 0 z M 18.488 9.75 C 19.099999999999998 9.75 19.642 9.787 20.115 9.861 C 20.561129239814537 9.927843121011938 20.998911050041823 10.041813883245688 21.421 10.201 L 21.421 12.659 C 21.218392392203672 12.518879697636955 21.003121239992996 12.398019843907477 20.777999999999995 12.297999999999998 C 20.545834285330752 12.193534666603028 20.30616243676721 12.106624372842191 20.060999999999996 12.038 C 19.596597455581826 11.908590603940302 19.117084406160963 11.84133772183359 18.634999999999998 11.838000000000001 C 18.335 11.838000000000001 18.062 11.866000000000001 17.816000000000003 11.924000000000001 C 17.59674602726233 11.970891283048593 17.38641618938622 12.05259243997639 17.193 12.166 C 17.023 12.27 16.893 12.395 16.8 12.540000000000001 C 16.706461955290763 12.686147153454376 16.657790722354846 12.856496468730084 16.66 13.030000000000001 C 16.66 13.226 16.713 13.403 16.816 13.559000000000001 C 16.919999999999998 13.715000000000002 17.067999999999998 13.863000000000001 17.259 14.003000000000002 C 17.450000000000003 14.143000000000002 17.682 14.279000000000002 17.955000000000002 14.413000000000002 C 18.228 14.548000000000002 18.537000000000003 14.687000000000001 18.881 14.829000000000002 C 19.351 15.026000000000002 19.773 15.236000000000002 20.147 15.457000000000003 C 20.520999999999997 15.679000000000002 20.842 15.930000000000003 21.11 16.21 C 21.378 16.489 21.582 16.808 21.724 17.167 C 21.866 17.526000000000003 21.938 17.943 21.938 18.42 C 21.938 19.077 21.813 19.630000000000003 21.564999999999998 20.076 C 21.322694098229757 20.515871073139916 20.974956537822276 20.888692469426594 20.552999999999997 21.161 C 20.098188664475455 21.449393640974026 19.59409198339368 21.651439116377347 19.065999999999995 21.757 C 18.499999999999996 21.877000000000002 17.902999999999995 21.937 17.275999999999996 21.937 C 16.658899712177103 21.939707140248817 16.042894013012447 21.884802284453706 15.435999999999996 21.773000000000003 C 14.910926382484337 21.682184638771904 14.40168823066826 21.516143363080552 13.923999999999996 21.28 L 13.923999999999996 18.650000000000002 C 14.827779599560952 19.41912114570731 15.974268957978758 19.8441403703293 17.160999999999994 19.85 C 17.493999999999993 19.85 17.784999999999993 19.82 18.032999999999994 19.76 C 18.281999999999993 19.700000000000003 18.488999999999994 19.616000000000003 18.655999999999995 19.51 C 18.821999999999996 19.402 18.945999999999994 19.276 19.028999999999996 19.130000000000003 C 19.216226223144456 18.783064844990356 19.187438466592557 18.35941799519281 18.954999999999995 18.041000000000004 C 18.806421623368013 17.84438857176974 18.62470049852915 17.6751882693127 18.417999999999996 17.541000000000004 C 18.16165546257739 17.371079587146493 17.89174173105373 17.22257686496991 17.610999999999994 17.097000000000005 C 17.278243110479025 16.945036333057544 16.942510678687615 16.79967452544975 16.603999999999985 16.661000000000005 C 15.685999999999996 16.278000000000006 15.001999999999995 15.809000000000005 14.550999999999995 15.256000000000006 C 14.100999999999996 14.703000000000005 13.874999999999995 14.034000000000006 13.874999999999995 13.251000000000005 C 13.874999999999995 12.637000000000004 13.997999999999994 12.110000000000005 14.243999999999994 11.669000000000004 C 14.489999999999995 11.228000000000003 14.823999999999995 10.865000000000004 15.247999999999994 10.580000000000004 C 15.696462239943667 10.284149676018679 16.194340815443034 10.071111836570312 16.717999999999993 9.951000000000004 C 17.297978381650207 9.814257644375344 17.892128312758196 9.746786381012235 18.487999999999992 9.750000000000005 z M 3.375 9.938 L 12.938 9.938 L 12.938 12.104000000000001 L 9.506 12.104000000000001 L 9.506 21.75 L 6.789 21.75 L 6.789 12.104 L 3.375 12.104 z" stroke-linecap="round" />
</g>
</svg>