<?xml version="1.0" encoding="UTF-8" standalone="no" ?>
<!DOCTYPE svg PUBLIC "-//W3C//DTD SVG 1.1//EN" "http://www.w3.org/Graphics/SVG/1.1/DTD/svg11.dtd">
<svg xmlns="http://www.w3.org/2000/svg" xmlns:xlink="http://www.w3.org/1999/xlink" version="1.1" width="640" height="640" viewBox="0 0 640 640" xml:space="preserve">
<desc>Created with Fabric.js 4.6.0</desc>
<defs>
</defs>
<g transform="matrix(26.58 0 0 26.58 319.47 319.47)" id="s8y0Oai_8fmGdl0LFdt-w"  >
<path style="stroke: none; stroke-width: 1; stroke-dasharray: none; stroke-linecap: butt; stroke-dashoffset: 0; stroke-linejoin: miter; stroke-miterlimit: 4; fill: rgb(206,212,218); fill-rule: nonzero; opacity: 1;" vector-effect="non-scaling-stroke"  transform=" translate(-12, -12)" d="M 8.286 10.578 L 8.798 1.9209999999999994 C 8.80637788764975 1.7816665356734585 8.907984852962887 1.6656618222390285 9.045 1.6389999999999993 L 17.377 0.006 C 17.481644634271433 -0.014550125523899985 17.58944010968351 0.020862505260330448 17.661510902161872 0.0994666273684636 C 17.73358169464024 0.17807074947659673 17.759530840370356 0.2885268981250655 17.73 0.391 L 16.172 5.794 C 16.142604601704594 5.896272431088015 16.16845218575482 6.006472490806095 16.240256441906105 6.0850083959715615 C 16.31206069805739 6.163544301137028 16.41950968399532 6.199137364843493 16.524 6.178999999999999 L 18.912 5.718999999999999 C 19.026633989981484 5.696582773312494 19.144030509091195 5.741380894555299 19.21458885027026 5.8344668988819 C 19.28514719144933 5.927552903208502 19.29655794435117 6.052687267330333 19.244 6.156999999999999 L 12.454 19.707 L 12.331000000000001 19.897000000000002 C 12.277213288652067 19.984472861976545 12.181685032201637 20.03754411556012 12.079 20.037000000000003 C 11.902000000000001 20.037000000000003 11.729000000000001 19.885 11.774000000000001 19.668000000000003 L 12.869000000000002 14.367000000000003 C 12.890868299643737 14.261366750777679 12.855501754073064 14.152022809808138 12.775914570085893 14.07920463889204 C 12.696327386098723 14.006386467975945 12.584278598312903 13.98085297765282 12.481000000000002 14.012000000000002 L 11.048000000000002 14.447000000000003 C 10.944790369408777 14.478452220661968 10.83264467543012 14.453225508524714 10.752845504286475 14.380606211391422 C 10.67304633314283 14.30798691425813 10.63738917948999 14.198709235491659 10.659000000000002 14.093000000000004 L 11.349000000000002 10.718000000000004 C 11.370262549481895 10.615590428286065 11.3377450946134 10.509414790690354 11.262780165635807 10.436475940874317 C 11.187815236658212 10.36353709105828 11.080788717798784 10.33394021367547 10.979000000000003 10.358000000000004 L 8.659000000000002 10.894000000000004 C 8.565122773190225 10.915567625933164 8.466569767484787 10.891673833861581 8.392993452358736 10.829507749423529 C 8.319417137232685 10.767341664985475 8.279406545685843 10.67416033210593 8.285000000000002 10.578000000000003 z M 23.262 2.6519999999999992 L 17.284 3.74 L 16.74 5.627000000000001 L 18.817 5.227 C 19.146720576664276 5.1612708693006715 19.48235547174079 5.308710483923568 19.657 5.596 C 19.804159666107566 5.833194561896735 19.817045256707946 6.1299421336642785 19.691 6.3790000000000004 L 12.9 19.93 L 12.887 19.955 L 12.872 19.977999999999998 L 12.75 20.168 C 12.60346425894613 20.39755215237708 12.35033390792591 20.53692451826619 12.078 20.538 C 11.832264987757126 20.536654069852386 11.599888660133637 20.425963768681573 11.443999999999999 20.236 C 11.292323691285194 20.048239463524286 11.23352850904408 19.80203463788962 11.283999999999999 19.566 L 12.312999999999999 14.584999999999999 L 11.192999999999998 14.924999999999999 C 10.879727969667629 15.01936803400047 10.540444456799817 14.916004917289579 10.332999999999998 14.662999999999998 C 10.17982559453169 14.475952105115233 10.11920288187592 14.22978715069483 10.168 13.992999999999999 L 10.798 10.912999999999998 L 8.771 11.380999999999998 C 8.49179732388137 11.444949884904942 8.199605112373654 11.356303029069919 8.003 11.147999999999998 C 7.851625813791833 10.986111046518511 7.773199937866156 10.769265306631846 7.7860000000000005 10.547999999999998 L 8.175 3.977999999999998 L 0.7350000000000003 2.647999999999998 C 0.5009681574230918 2.6057660268319998 0.26366017439387696 2.7029308535554843 0.12645058258567365 2.897168181958972 C -0.010759009222529592 3.09140551036246 -0.023023377743678908 3.347541543802459 0.0950000000000002 3.5539999999999976 L 11.58 23.691 C 11.689230591002318 23.88289728696551 11.893362099785483 24.001075621078545 12.114167906497059 24.000247081466117 C 12.334973713208635 23.99941854185369 12.538212594364936 23.879711613406926 12.646 23.686999999999998 L 23.906 3.551999999999996 C 24.021207512786543 3.345208631055621 24.006828285808712 3.0905213726143503 23.869076885090156 2.898011651113263 C 23.7313254843716 2.7055019296121756 23.494907285500208 2.609695891059186 23.262 2.651999999999996 z" stroke-linecap="round" />
</g>
</svg>